<svg width="30" height="30" viewBox="0 0 30 30" fill="none" xmlns="http://www.w3.org/2000/svg">
<g clip-path="url(#clip0_140_1712)">
<path d="M3.30943 3.92059C3.25283 1.88088 4.51922 0 6.23098 0H23.7712C25.4829 0 26.7493 1.88088 26.6927 3.92059C26.6384 5.87993 26.709 8.41802 27.218 10.4875C27.7286 12.5634 28.5897 13.8755 30 14.0441V15.9559C28.5897 16.1245 27.7286 17.4366 27.218 19.5125C26.709 21.582 26.6384 24.1201 26.6927 26.0795C26.7493 28.1191 25.4829 30 23.7712 30H6.23098C4.51922 30 3.25283 28.1191 3.30949 26.0795C3.36381 24.1201 3.2932 21.582 2.78414 19.5125C2.27355 17.4366 1.41035 16.1245 0 15.9559V14.0441C1.41029 13.8755 2.27355 12.5634 2.78414 10.4875C3.2932 8.41802 3.36381 5.87993 3.30943 3.92059Z" fill="url(#paint0_linear_140_1712)"/>
<g filter="url(#filter0_d_140_1712)">
<path d="M15.6505 22.9744C18.4218 22.9744 20.0918 21.2716 20.0918 18.463C20.0918 16.34 18.9002 14.803 17.1309 14.5597V14.4713C18.4308 14.2059 19.4509 12.6911 19.4509 10.9993C19.4509 8.58878 17.9344 7.01855 15.6234 7.01855H10.4238V22.9744H15.6505ZM12.4459 9.04208H15.136C16.5984 9.04208 17.4288 9.86032 17.4288 11.342C17.4288 12.9233 16.463 13.8078 14.7117 13.8078H12.4459V9.04208ZM12.4459 20.951V15.6987H15.1179C17.0316 15.6987 18.0246 16.5833 18.0246 18.3083C18.0246 20.0332 17.0587 20.951 15.2353 20.951H12.4459Z" fill="url(#paint1_linear_140_1712)"/>
<path d="M15.6505 22.9744C18.4218 22.9744 20.0918 21.2716 20.0918 18.463C20.0918 16.34 18.9002 14.803 17.1309 14.5597V14.4713C18.4308 14.2059 19.4509 12.6911 19.4509 10.9993C19.4509 8.58878 17.9344 7.01855 15.6234 7.01855H10.4238V22.9744H15.6505ZM12.4459 9.04208H15.136C16.5984 9.04208 17.4288 9.86032 17.4288 11.342C17.4288 12.9233 16.463 13.8078 14.7117 13.8078H12.4459V9.04208ZM12.4459 20.951V15.6987H15.1179C17.0316 15.6987 18.0246 16.5833 18.0246 18.3083C18.0246 20.0332 17.0587 20.951 15.2353 20.951H12.4459Z" stroke="white"/>
</g>
</g>
<defs>
<filter id="filter0_d_140_1712" x="-6.07617" y="-5.48145" width="42.668" height="48.9561" filterUnits="userSpaceOnUse" color-interpolation-filters="sRGB">
<feFlood flood-opacity="0" result="BackgroundImageFix"/>
<feColorMatrix in="SourceAlpha" type="matrix" values="0 0 0 0 0 0 0 0 0 0 0 0 0 0 0 0 0 0 127 0" result="hardAlpha"/>
<feOffset dy="4"/>
<feGaussianBlur stdDeviation="8"/>
<feColorMatrix type="matrix" values="0 0 0 0 0 0 0 0 0 0 0 0 0 0 0 0 0 0 0.15 0"/>
<feBlend mode="normal" in2="BackgroundImageFix" result="effect1_dropShadow_140_1712"/>
<feBlend mode="normal" in="SourceGraphic" in2="effect1_dropShadow_140_1712" result="shape"/>
</filter>
<linearGradient id="paint0_linear_140_1712" x1="4.45775" y1="0.793971" x2="34.9787" y2="20.1003" gradientUnits="userSpaceOnUse">
<stop stop-color="#9013FE"/>
<stop offset="1" stop-color="#6610F2"/>
</linearGradient>
<linearGradient id="paint1_linear_140_1712" x1="11.3383" y1="8.06878" x2="19.3701" y2="18.8932" gradientUnits="userSpaceOnUse">
<stop stop-color="white"/>
<stop offset="1" stop-color="#EFEFEF"/>
</linearGradient>
<clipPath id="clip0_140_1712">
<rect width="30" height="30" fill="white"/>
</clipPath>
</defs>
</svg>
