<svg width="30" height="30" viewBox="0 0 30 30" fill="none" xmlns="http://www.w3.org/2000/svg">
<path d="M4.18101 27.0011L1.77368 0H28.2262L25.8163 26.9968L14.9838 30L4.18101 27.0011Z" fill="#264DE4"/>
<path d="M23.7532 25.2781L25.8127 2.20801H15V27.7048L23.7532 25.2781Z" fill="#2965F1"/>
<path d="M7.29247 12.2222L7.58925 15.5338H14.9999V12.2222H7.29247ZM6.9971 8.83113H14.9999V5.51953H6.69604L6.9971 8.83113ZM14.9999 20.8228L14.9854 20.8266L11.2972 19.8308L11.0615 17.1896H7.73714L8.20114 22.3893L14.9847 24.2725L14.9999 24.2682V20.8228Z" fill="#E6F0E8"/>
<path d="M14.9885 12.2222V15.5338H19.0664L18.682 19.8287L14.9885 20.8255V24.2708L21.7774 22.3893L21.8272 21.8297L22.6054 13.1115L22.6862 12.2222L23.2841 5.51953H14.9885V8.83113H19.6549L19.3535 12.2222H14.9885Z" fill="white"/>
</svg>
