<svg width="30" height="30" viewBox="0 0 30 30" fill="none" xmlns="http://www.w3.org/2000/svg">
<g clip-path="url(#clip0_140_1721)">
<mask id="mask0_140_1721" style="mask-type:luminance" maskUnits="userSpaceOnUse" x="0" y="0" width="30" height="30">
<path d="M0.421875 14.9998C0.421875 22.8521 6.94888 29.2178 15 29.2178C23.0512 29.2178 29.5782 22.8521 29.5782 14.9998C29.5782 7.14767 23.0512 0.781916 15 0.781916C6.94888 0.781916 0.421875 7.14767 0.421875 14.9998Z" fill="white"/>
</mask>
<g mask="url(#mask0_140_1721)">
<path d="M0.421875 14.9998C0.421875 22.8521 6.94888 29.2178 15 29.2178C23.0512 29.2178 29.5782 22.8521 29.5782 14.9998C29.5782 7.14767 23.0512 0.781916 15 0.781916C6.94888 0.781916 0.421875 7.14767 0.421875 14.9998Z" fill="url(#paint0_radial_140_1721)"/>
</g>
<mask id="mask1_140_1721" style="mask-type:luminance" maskUnits="userSpaceOnUse" x="-1" y="-1" width="32" height="32">
<path d="M-0.185547 -0.83691H30.1856V30.8369H-0.185547V-0.83691Z" fill="white"/>
</mask>
<g mask="url(#mask1_140_1721)">
<path d="M14.9999 28.1621C22.7366 28.1621 29.0086 22.2691 29.0086 14.9998C29.0086 7.73054 22.7366 1.83745 14.9999 1.83745C7.26322 1.83745 0.991211 7.73054 0.991211 14.9998C0.991211 22.2691 7.26322 28.1621 14.9999 28.1621Z" fill="#777BB3"/>
</g>
<mask id="mask2_140_1721" style="mask-type:luminance" maskUnits="userSpaceOnUse" x="-1" y="-1" width="32" height="32">
<path d="M-0.185547 -0.83691H30.1856V30.8369H-0.185547V-0.83691Z" fill="white"/>
</mask>
<g mask="url(#mask2_140_1721)">
<path d="M8.34219 16.6317C8.97835 16.6317 9.45327 16.4142 9.75377 15.9854C10.051 15.5611 10.2564 14.8258 10.364 13.8002C10.4643 12.8416 10.4261 12.1723 10.2504 11.8111C10.0708 11.4421 9.68237 11.255 9.09604 11.255H8.0794L7.51579 16.6317H8.34219ZM5.01703 23.2549C4.96984 23.2549 4.92502 23.2158 4.89501 23.1481C4.86496 23.0806 4.85278 22.9916 4.8618 22.9057L6.35547 8.65726C6.36991 8.51952 6.43503 8.42 6.51075 8.42H9.72999C10.7417 8.42 11.4948 8.92932 11.9681 9.93399C12.444 10.9439 12.5909 12.3557 12.4049 14.1299C12.3291 14.8527 12.1989 15.524 12.0178 16.125C11.8365 16.7268 11.5968 17.2835 11.3054 17.7801C10.9565 18.3854 10.5617 18.8244 10.1329 19.0826C9.71095 19.3375 9.16902 19.4667 8.52221 19.4667H7.21867L6.84641 23.0175C6.83197 23.1554 6.7669 23.2549 6.69118 23.2549H5.01703Z" fill="black"/>
<path d="M8.20978 11.548H9.09603C9.80369 11.548 10.0495 11.8359 10.133 12.0074C10.2716 12.2923 10.2977 12.8929 10.2087 13.7443C10.1086 14.6975 9.92312 15.3733 9.65726 15.7528C9.38508 16.1413 8.94259 16.3381 8.34218 16.3381H7.70766L8.20978 11.548ZM9.72998 8.12641H6.51069C6.35925 8.12641 6.22907 8.32545 6.20017 8.60103L4.7065 22.8495C4.68847 23.0214 4.71283 23.1992 4.77289 23.3344C4.833 23.4696 4.92253 23.5479 5.01702 23.5479H6.69112C6.84261 23.5479 6.97279 23.3488 7.00169 23.0732L7.34906 19.7597H8.5222C9.18561 19.7597 9.74411 19.6256 10.182 19.3611C10.6324 19.0899 11.0467 18.6299 11.4134 17.9941C11.7167 17.4767 11.9665 16.8961 12.1558 16.268C12.3452 15.6397 12.4812 14.939 12.5601 14.1855C12.756 12.3179 12.5969 10.8224 12.0872 9.7408C11.5825 8.66956 10.7894 8.12641 9.72998 8.12641ZM7.32385 16.9247H8.34218C9.01715 16.9247 9.51991 16.689 9.85025 16.2175C10.1806 15.7459 10.4035 14.9589 10.5193 13.856C10.63 12.797 10.5796 12.0498 10.3679 11.6144C10.1559 11.1791 9.73203 10.9614 9.09603 10.9614H7.94899L7.32385 16.9247ZM9.72998 8.71297C10.6984 8.71297 11.4049 9.18416 11.849 10.1267C12.293 11.0691 12.4267 12.3847 12.2496 14.0737C12.1766 14.7694 12.0533 15.4055 11.8797 15.9818C11.7058 16.5585 11.4788 17.0858 11.1983 17.5639C10.864 18.1439 10.4927 18.5573 10.084 18.8034C9.6754 19.0503 9.15493 19.1731 8.5222 19.1731H7.08821L6.69112 22.9613H5.01702L6.51069 8.71297H9.72998Z" fill="white"/>
<path d="M16.2431 19.4668C16.1959 19.4668 16.1511 19.4277 16.1211 19.36C16.091 19.2925 16.0788 19.2036 16.0878 19.1176L16.7486 12.8132C16.8114 12.2137 16.7959 11.7834 16.705 11.6015C16.6493 11.4904 16.482 11.3039 15.9875 11.3039H14.7905L13.9597 19.2294C13.9453 19.3673 13.8802 19.4668 13.8045 19.4668H12.1435C12.0963 19.4668 12.0515 19.4277 12.0215 19.36C11.9914 19.2925 11.9792 19.2035 11.9883 19.1176L13.4819 4.86917C13.4964 4.73143 13.5615 4.63191 13.6372 4.63191H15.2981C15.3454 4.63191 15.3901 4.67101 15.4202 4.73857C15.4503 4.80621 15.4624 4.89508 15.4534 4.9811L15.093 8.42006H16.3807C17.3617 8.42006 18.0269 8.74071 18.4143 9.40039C18.8093 10.0734 18.9325 11.1494 18.7806 12.599L18.0857 19.2294C18.0712 19.3673 18.0062 19.4668 17.9304 19.4668H16.2431Z" fill="black"/>
<path d="M15.2981 4.33833H13.6372C13.4857 4.33833 13.3555 4.53736 13.3266 4.81295L11.833 19.0614C11.8149 19.2333 11.8393 19.4112 11.8994 19.5464C11.9595 19.6816 12.049 19.7598 12.1435 19.7598H13.8045C13.9559 19.7598 14.0861 19.5607 14.115 19.2851L14.9209 11.5969H15.9875C16.4812 11.5969 16.5848 11.7924 16.589 11.8008C16.6189 11.8606 16.6583 12.1372 16.5933 12.757L15.9325 19.0614C15.9145 19.2333 15.9389 19.4112 15.999 19.5464C16.0591 19.6816 16.1486 19.7598 16.2431 19.7598H17.9304C18.0818 19.7598 18.2121 19.5607 18.241 19.2851L18.9359 12.6547C19.0989 11.0982 18.9594 9.93071 18.5214 9.18423C18.1033 8.47245 17.4031 8.12648 16.3807 8.12648H15.2848L15.6087 5.03681C15.6267 4.86486 15.6024 4.68694 15.5423 4.55183C15.4821 4.41663 15.3926 4.33833 15.2981 4.33833ZM15.2981 4.92488L14.901 8.71303H16.3807C17.3117 8.71303 17.9539 9.01432 18.3073 9.61613C18.6607 10.2183 18.7666 11.194 18.6253 12.5428L17.9304 19.1732H16.2431L16.9038 12.8689C16.979 12.1518 16.9514 11.6626 16.8208 11.4018C16.6902 11.141 16.4124 11.0104 15.9875 11.0104H14.66L13.8045 19.1732H12.1435L13.6372 4.92488H15.2981Z" fill="white"/>
<path d="M21.4091 16.6317C22.0452 16.6317 22.5202 16.4142 22.8207 15.9854C23.1179 15.5612 23.3233 14.8259 23.4309 13.8002C23.5313 12.8416 23.493 12.1723 23.3173 11.8111C23.1377 11.4421 22.7493 11.255 22.1629 11.255H21.1463L20.5827 16.6317H21.4091ZM18.084 23.2549C18.0368 23.2549 17.992 23.2158 17.962 23.1481C17.9319 23.0806 17.9197 22.9916 17.9287 22.9057L19.4224 8.65726C19.4369 8.51952 19.5019 8.42 19.5777 8.42H22.7969C23.8087 8.42 24.5617 8.92932 25.0351 9.93399C25.5109 10.9438 25.6578 12.3556 25.4718 14.1299C25.396 14.8527 25.2658 15.524 25.0847 16.125C24.9033 16.7268 24.6637 17.2835 24.3723 17.7801C24.0234 18.3854 23.6286 18.8244 23.1998 19.0826C22.7778 19.3375 22.2359 19.4667 21.5891 19.4667H20.2855L19.9134 23.0175C19.8989 23.1554 19.8338 23.2549 19.7581 23.2549H18.084Z" fill="black"/>
<path d="M21.2766 11.548H22.1629C22.8705 11.548 23.1163 11.8359 23.1999 12.0074C23.3385 12.2923 23.3646 12.8929 23.2755 13.7442C23.1755 14.6975 22.9899 15.3733 22.7241 15.7528C22.4519 16.1413 22.0094 16.3381 21.409 16.3381H20.7746L21.2766 11.548ZM22.7968 8.12641H19.5776C19.4261 8.12641 19.296 8.32545 19.2671 8.60103L17.7734 22.8495C17.7554 23.0214 17.7797 23.1992 17.8398 23.3344C17.8999 23.4696 17.9894 23.5479 18.0839 23.5479H19.758C19.9094 23.5479 20.0397 23.3488 20.0686 23.0732L20.4159 19.7597H21.589C22.2525 19.7597 22.8109 19.6256 23.2489 19.3611C23.6992 19.0899 24.1136 18.6298 24.4804 17.9939C24.7836 17.4766 25.0334 16.8961 25.2227 16.268C25.412 15.6397 25.548 14.939 25.627 14.1855C25.8229 12.3178 25.6637 10.8223 25.1541 9.7407C24.6494 8.66956 23.8563 8.12641 22.7968 8.12641ZM20.3907 16.9247H21.409C22.084 16.9247 22.5867 16.689 22.9171 16.2175C23.2475 15.7459 23.4703 14.9589 23.5861 13.856C23.6969 12.797 23.6465 12.0498 23.4347 11.6144C23.2228 11.1791 22.7989 10.9614 22.1629 10.9614H21.0158L20.3907 16.9247ZM22.7968 8.71297C23.7653 8.71297 24.4718 9.18416 24.9158 10.1267C25.3599 11.0691 25.4936 12.3847 25.3164 14.0737C25.2435 14.7694 25.1202 15.4055 24.9465 15.9818C24.7727 16.5585 24.5457 17.0858 24.2652 17.5639C23.9309 18.1439 23.5595 18.5573 23.1509 18.8034C22.7422 19.0503 22.2218 19.1731 21.589 19.1731H20.1551L19.758 22.9613H18.0839L19.5776 8.71297H22.7968Z" fill="white"/>
</g>
</g>
<defs>
<radialGradient id="paint0_radial_140_1721" cx="0" cy="0" r="1" gradientUnits="userSpaceOnUse" gradientTransform="translate(9.17467 5.7805) scale(19.1432 35.4921)">
<stop stop-color="#AEB2D5"/>
<stop offset="0.3" stop-color="#AEB2D5"/>
<stop offset="0.75" stop-color="#484C89"/>
<stop offset="1" stop-color="#484C89"/>
</radialGradient>
<clipPath id="clip0_140_1721">
<rect width="30" height="30" fill="white"/>
</clipPath>
</defs>
</svg>
